<svg xmlns="http://www.w3.org/2000/svg" width="688" height="1491" fill="none" viewBox="0 0 688 1491">
    <g clip-path="url(#a)">
        <path fill="#000"
            d="M375.018 1324.05c10.69-10.24 31.551-32.95 72.455-28.28v57.52c-24.646-2.3-40.83 10.24-40.83 40.81 0 24.12 8.389 40.37 20.415 40.37 17.149 0 19.524-12.98 29.249-69.16 7.424-42.67 26.429-62.19 64.512-62.19 45.062 0 74.756 35.25 74.756 89.57 0 54.33-23.681 82.6-73.791 93.73l-16.703-51.06c27.839-7.42 36.673-17.14 36.673-41.78 0-21.81-8.315-34.36-21.826-34.36-13.511 0-17.149 4.16-20.415 20.86-16.258 84-22.716 110.42-72.455 110.42-43.651 0-74.756-39.92-74.756-94.69 0-29.68 7.423-53.36 22.716-71.91v.15ZM679.983-3.154V57.18H354.974V-3.154h325.009Zm-191.68 317.923H355.049V256.29h114.695c47.363 0 69.189-13.433 69.189-41.781 0-30.65-19.524-45.938-59.909-45.938H355.049v-58.478h232.138v49.202l-17.149 4.156c11.136 9.722 22.717 26.419 22.717 57.514 0 57.514-40.831 93.729-104.452 93.729v.075Zm136.002 126.679h-37.118v56.623h-55.678v-56.623H355.048v-58.479h176.461v-38.961h55.678v38.961h92.87v123.488h-55.752v-65.009Zm-152.779 67.755c68.224 0 120.709 51.058 120.709 121.114v.445c0 69.61-52.485 120.668-120.709 120.668s-120.709-51.058-120.709-120.668v-.445c0-70.056 52.485-121.114 120.709-121.114Zm-62.21 121.633c0 37.625 26.428 62.189 62.21 62.189s61.765-24.638 62.21-62.189v-.445c0-38.071-26.428-62.635-62.21-62.635s-62.21 24.638-62.21 62.635v.445Zm-58.499 271.986c0-70.056 52.485-121.114 120.709-121.114s120.709 51.058 120.709 121.114c0 54.323-29.249 96.03-79.359 113.248l-19.524-55.66c26.948-9.722 40.384-28.794 40.384-57.514 0-38.07-26.428-62.634-62.21-62.634-35.782-.001-62.21 24.638-62.21 62.634 0 29.24 12.991 47.792 39.939 57.514l-19.005 55.66c-50.109-17.664-79.359-58.925-79.359-113.248h-.074Zm236.37 355.028H355.048v-49.2l16.704-3.71c-10.69-9.72-22.271-26.94-22.271-58.04 0-57.51 40.83-93.73 104.451-93.73h133.255v58.48H472.491c-47.363 0-69.189 13.44-69.189 41.78 0 30.65 19.524 45.94 59.909 45.94h123.976v58.48ZM333.101 353.173H8.092v-60.334H218.85L42.91 206.012v-58.924l175.94-86.754H8.092V0h325.009v71.02L112.543 177.293l220.558 104.861v71.02Zm7.942 540.188H5.865v-49.203l24.127-4.675C12.322 821.375.296 793.546.296 769.427c0-67.31 54.341-116.958 123.975-116.958 69.634 0 123.976 49.648 123.976 116.958 0 25.974-9.725 49.648-25.538 65.455h118.408v58.479h-.075Zm-216.845-58.479c38.974 0 67.778-24.564 67.778-60.78 0-36.215-30.214-63.154-67.778-63.154-37.564 0-67.778 25.974-67.778 63.154 0 37.18 28.804 60.78 67.778 60.78Zm181.064 93.802c19.969 0 36.227 16.252 36.227 36.215 0 19.963-16.258 36.211-36.227 36.211-19.97 0-36.228-16.248-36.228-36.211 0-19.963 16.258-36.215 36.228-36.215Zm-64.958 65.38H8.166v-58.479h232.138v58.479ZM55.975 1258.63H8.166v-27.38c0-17.15 7.87-31.99 21.38-41.79-16.257-12.98-26.948-35.25-26.948-59.88 0-58.48 33.852-95.59 86.338-95.59 70.525 0 82.18 85.86 66.813 144.34h28.804v-121.11h55.677v178.18H76.316c-22.717 0-19.97 4.68-20.416 23.23h.075Zm49.664-80.3c12.546-32.5 13.437-86.75-16.703-86.75-50.63 0-35.782 86.75 6.533 86.75h10.17ZM59.24 506.792c0 22.783 7.647 41.558 24.944 51.354 0 0-3.043 4.601-.816 5.269l-7.35 52.987C28.21 599.705 2.672 557.033 2.672 506.866c0-66.345 54.787-115.548 123.011-115.548 68.223 0 120.263 49.648 120.263 115.548s-52.931 114.657-120.263 115.547h-19.005V450.242c-30.66 5.566-47.363 28.794-47.363 56.624l-.074-.074Zm91.46-55.288v110.427c22.271-7.866 38.529-28.794 38.529-55.214 0-26.419-16.258-47.347-38.529-55.213Z" />
        <path fill="#000"
            d="M84.11 558.072v60.556s-17.594-3.191-36.45-16.846l18.707-32.208 17.743-11.428v-.074Zm195.02 733.508c34.372 0 61.913 27.68 61.913 62.04s-27.69 61.89-61.913 61.89-62.062-27.53-62.062-61.89 27.69-62.04 62.062-62.04Zm0 105.75c24.201 0 43.725-19.52 43.725-43.71s-19.524-43.86-43.725-43.86-43.874 19.52-43.874 43.86 19.673 43.71 43.874 43.71Zm-28.804-64.49h57.831v22.41c0 10.47-7.721 18.19-18.188 18.19-6.236 0-11.804-3.05-15.145-8.02l-24.498 14.1v-18.03l21.306-12.1v-1.48h-21.306v-15.07Zm39.717 25.31c3.192 0 4.38-1.63 4.38-3.79v-7.12h-8.315v7.12c0 2.16 1.04 3.79 3.935 3.79Z" />
    </g>
    <defs>
        <clipPath id="a">
            <path fill="#fff" d="M688 0v1491H0V0z" />
        </clipPath>
    </defs>
</svg>