<svg xmlns="http://www.w3.org/2000/svg" width="342" height="2953" fill="none" viewBox="0 0 342 2953">
  <g clip-path="url(#a)">
    <path fill="#000" d="M28.55 1327.13c10.706-10.26 31.598-33.02 72.563-28.33v57.64c-24.683-2.3-40.89 10.27-40.89 40.91 0 24.18 8.4 40.47 20.445 40.47 17.174 0 19.553-13.02 29.293-69.33 7.435-42.77 26.468-62.33 64.608-62.33 45.129 0 74.868 35.33 74.868 89.78s-23.717 82.79-73.901 93.94l-16.729-51.17c27.881-7.44 36.728-17.18 36.728-41.88 0-21.87-8.327-34.44-21.858-34.44s-17.175 4.17-20.446 20.9c-16.282 84.21-22.75 110.69-72.563 110.69-43.717 0-74.868-40.02-74.868-94.92 0-29.75 7.434-53.48 22.75-72.07v.14ZM333.971-3.115v60.473H8.476V-3.115h325.495ZM142.005 315.54H8.55v-58.614h114.868c47.434 0 69.292-13.464 69.292-41.878 0-30.72-19.554-46.043-59.999-46.043H8.551v-58.613h232.485v49.315l-17.174 4.166c11.152 9.744 22.75 26.48 22.75 57.647 0 57.646-40.891 93.945-104.607 93.945v.075ZM278.21 442.454h-37.174v56.754h-55.761v-56.754H8.55V383.84h176.725v-39.051h55.761v39.051h93.009v123.773H278.21v-65.159ZM125.202 510.37c68.326 0 120.89 51.175 120.89 121.393v.446c0 69.771-52.564 120.947-120.89 120.947S4.312 701.98 4.312 632.209v-.446c0-70.218 52.565-121.393 120.89-121.393ZM62.899 632.284c0 37.712 26.467 62.332 62.303 62.332s61.857-24.695 62.303-62.332v-.447c0-38.158-26.467-62.779-62.303-62.779s-62.303 24.695-62.303 62.779v.447ZM4.313 904.918c0-70.217 52.563-121.393 120.889-121.393s120.89 51.176 120.89 121.393c0 54.448-29.294 96.252-79.478 113.512l-19.554-55.791c26.989-9.744 40.445-28.86 40.445-57.646 0-38.159-26.467-62.78-62.303-62.78s-62.303 24.696-62.303 62.78c0 29.306 13.01 47.902 39.999 57.646l-19.033 55.791C33.68 1000.72 4.387 959.366 4.387 904.918h-.074Zm236.723 355.812H8.55v-49.32l16.728-3.71c-10.706-9.75-22.304-27.01-22.304-58.17 0-57.65 40.891-93.95 104.607-93.95h133.455v58.62H126.168c-47.434 0-69.292 13.46-69.292 41.87 0 30.72 19.554 46.05 59.999 46.05h124.161v58.61Zm92.935 624.78H8.476v-60.47h211.073l-176.204-87.03v-59.06L219.55 1592H8.476v-60.48h325.495v71.19l-220.888 106.51 220.888 105.11v71.18ZM59.702 2039.46c0 22.83 7.657 41.65 24.98 51.47 0 0-3.048 4.61-.817 5.28l-7.36 53.11c-47.88-16.74-73.456-59.51-73.456-109.79 0-66.5 54.868-115.81 123.194-115.81 68.325 0 120.443 49.76 120.443 115.81 0 66.05-53.01 114.92-120.443 115.82H107.21v-172.57c-30.706 5.58-47.434 28.86-47.434 56.75l-.074-.07Zm91.596-55.42v110.68c22.304-7.88 38.587-28.86 38.587-55.34 0-26.48-16.283-47.45-38.587-55.34Zm190.628 442.86H6.246v-49.32l24.162-4.68C12.714 2354.75.67 2326.85.67 2302.68c0-67.47 54.423-117.23 124.161-117.23s124.161 49.76 124.161 117.23c0 26.03-9.74 49.76-25.576 65.6H342v58.62h-.074Zm-217.17-58.62c39.032 0 67.879-24.62 67.879-60.92 0-36.29-30.259-63.3-67.879-63.3-37.62 0-67.88 26.04-67.88 63.3 0 37.27 28.847 60.92 67.88 60.92Zm181.334 94.01c20 0 36.282 16.29 36.282 36.3 0 20.01-16.282 36.3-36.282 36.3-19.999 0-36.282-16.29-36.282-36.3 0-20.01 16.283-36.3 36.282-36.3Zm-65.054 65.54H8.55v-58.62h232.486v58.62ZM56.43 2793.06H8.55v-27.45c0-17.18 7.881-32.06 21.412-41.88-16.282-13.02-26.988-35.33-26.988-60.03 0-58.61 33.903-95.8 86.467-95.8 70.63 0 82.303 86.06 66.913 144.67h28.847v-121.39h55.76v178.59H76.801c-22.75 0-20 4.69-20.445 23.29h.074Zm49.739-80.49c12.565-32.58 13.457-86.95-16.728-86.95-50.706 0-35.836 86.95 6.542 86.95h10.186Z"/>
    <path fill="#000" d="M84.608 2090.8v60.7s-17.62-3.2-36.505-16.88l18.736-32.29 17.769-11.45v-.08Zm195.318 735.26c34.423 0 62.006 27.74 62.006 62.18s-27.732 62.03-62.006 62.03-62.155-27.59-62.155-62.03 27.732-62.18 62.155-62.18Zm0 105.99c24.237 0 43.791-19.56 43.791-43.81 0-24.25-19.554-43.96-43.791-43.96s-43.939 19.56-43.939 43.96c0 24.4 19.702 43.81 43.939 43.81Zm-28.847-64.64h57.917v22.47c0 10.48-7.732 18.22-18.215 18.22-6.245 0-11.821-3.05-15.167-8.03l-24.535 14.13v-18.08l21.338-12.12v-1.49h-21.338v-15.1Zm39.776 25.37c3.197 0 4.387-1.64 4.387-3.8v-7.14h-8.327v7.14c0 2.16 1.041 3.8 3.94 3.8Z"/>
  </g>
  <defs>
    <clipPath id="a">
      <path fill="#fff" d="M342 0v2953H0V0z"/>
    </clipPath>
  </defs>
</svg>
